<?xml version="1.0" standalone="no"?>
<!DOCTYPE svg PUBLIC "-//W3C//DTD SVG 20010904//EN"
 "http://www.w3.org/TR/2001/REC-SVG-20010904/DTD/svg10.dtd">
<svg version="1.0" xmlns="http://www.w3.org/2000/svg"
 width="700.000000pt" height="700.000000pt" viewBox="0 0 700.000000 700.000000"
 preserveAspectRatio="xMidYMid meet">
<metadata>
Created by potrace 1.14, written by Peter Selinger 2001-2017
</metadata>
<g transform="translate(0.000000,700.000000) scale(0.100000,-0.100000)"
fill="#000000" stroke="none">
<path d="M3237 6124 c-1 -1 -24 -4 -52 -8 -257 -31 -481 -239 -545 -506 -14
-58 -20 -590 -8 -680 24 -174 137 -345 303 -457 52 -35 182 -82 248 -89 86
-10 86 -9 92 -16 8 -8 9 -417 2 -425 -4 -3 -264 -6 -579 -7 -629 -1 -594 2
-662 -62 -61 -58 -66 -82 -66 -374 0 -236 2 -269 19 -305 36 -79 97 -122 183
-129 89 -7 168 37 211 119 18 34 21 59 22 175 l1 135 1095 3 1094 2 1 -137 c0
-121 3 -143 22 -179 23 -46 80 -95 128 -111 68 -24 166 0 219 53 61 61 65 83
65 375 0 264 0 265 -25 316 -14 28 -38 59 -53 69 -75 51 -40 48 -650 49 -315
1 -575 4 -577 7 -4 4 -8 353 -5 423 0 6 21 11 47 13 220 12 428 150 532 351
67 131 74 177 75 499 2 378 -12 453 -111 604 -95 145 -245 244 -433 284 -28 6
-586 13 -593 8z"/>
<path d="M1937 2624 c-1 -1 -28 -4 -59 -8 -241 -25 -462 -216 -539 -466 -23
-72 -24 -89 -24 -385 1 -329 3 -358 33 -445 59 -168 170 -293 334 -377 114
-59 169 -66 498 -67 162 -1 313 2 335 8 224 51 383 168 472 347 69 140 75 181
75 519 1 248 -2 306 -17 365 -50 200 -174 356 -350 441 -127 61 -169 67 -478
68 -153 1 -279 1 -280 0z"/>
<path d="M4515 2622 c-60 -6 -191 -52 -254 -89 -99 -58 -198 -163 -249 -264
-66 -133 -74 -188 -74 -524 0 -321 6 -370 65 -495 59 -126 188 -259 297 -306
8 -3 31 -13 50 -22 37 -16 80 -28 145 -39 22 -4 171 -7 330 -7 328 0 378 7
504 72 183 95 311 267 348 465 4 23 8 184 7 357 l0 315 -28 80 c-52 149 -136
263 -256 345 -148 100 -208 113 -565 114 -159 1 -303 0 -320 -2z"/>
</g>
</svg>
